<svg xmlns="http://www.w3.org/2000/svg" width="547" height="137" viewBox="0 0 547 137" fill="none">
    <path d="M151.718 41.5338H139.751V36.7042H151.718C154.035 36.7042 155.912 36.3351 157.347 35.5968C158.783 34.8585 159.829 33.8331 160.485 32.5206C161.162 31.2081 161.5 29.711 161.5 28.0294C161.5 26.4913 161.162 25.0455 160.485 23.692C159.829 22.3385 158.783 21.2516 157.347 20.4312C155.912 19.5904 154.035 19.17 151.718 19.17H141.136V59.0987H135.199V14.3097H151.718C155.102 14.3097 157.962 14.8941 160.3 16.0631C162.638 17.232 164.412 18.8521 165.622 20.9234C166.832 22.9742 167.437 25.3224 167.437 27.9679C167.437 30.839 166.832 33.2896 165.622 35.3199C164.412 37.3502 162.638 38.8985 160.3 39.9649C157.962 41.0108 155.102 41.5338 151.718 41.5338ZM179.772 31.044V59.0987H174.082V25.8145H179.619L179.772 31.044ZM190.17 25.63L190.139 30.921C189.667 30.8185 189.216 30.7569 188.786 30.7364C188.375 30.6954 187.904 30.6749 187.371 30.6749C186.058 30.6749 184.899 30.88 183.895 31.2901C182.89 31.7003 182.039 32.2745 181.341 33.0128C180.644 33.7511 180.09 34.6329 179.68 35.6583C179.291 36.6632 179.034 37.7706 178.911 38.9806L177.312 39.9034C177.312 37.8936 177.506 36.0069 177.896 34.2433C178.306 32.4796 178.932 30.921 179.772 29.5675C180.613 28.1935 181.68 27.127 182.972 26.3683C184.284 25.589 185.843 25.1993 187.647 25.1993C188.058 25.1993 188.529 25.2506 189.062 25.3531C189.596 25.4352 189.965 25.5274 190.17 25.63ZM193.308 42.8258V42.1183C193.308 39.7188 193.656 37.4937 194.354 35.443C195.051 33.3717 196.056 31.5772 197.368 30.0597C198.681 28.5216 200.27 27.3321 202.136 26.4913C204.002 25.63 206.094 25.1993 208.412 25.1993C210.75 25.1993 212.852 25.63 214.718 26.4913C216.604 27.3321 218.204 28.5216 219.517 30.0597C220.85 31.5772 221.865 33.3717 222.562 35.443C223.259 37.4937 223.608 39.7188 223.608 42.1183V42.8258C223.608 45.2252 223.259 47.4503 222.562 49.5011C221.865 51.5518 220.85 53.3463 219.517 54.8844C218.204 56.4019 216.615 57.5914 214.749 58.4527C212.903 59.2935 210.811 59.714 208.473 59.714C206.135 59.714 204.033 59.2935 202.167 58.4527C200.301 57.5914 198.701 56.4019 197.368 54.8844C196.056 53.3463 195.051 51.5518 194.354 49.5011C193.656 47.4503 193.308 45.2252 193.308 42.8258ZM198.999 42.1183V42.8258C198.999 44.4869 199.193 46.0558 199.583 47.5323C199.973 48.9884 200.557 50.2804 201.336 51.4083C202.136 52.5362 203.131 53.4283 204.32 54.0846C205.51 54.7203 206.894 55.0382 208.473 55.0382C210.032 55.0382 211.396 54.7203 212.564 54.0846C213.754 53.4283 214.738 52.5362 215.518 51.4083C216.297 50.2804 216.881 48.9884 217.271 47.5323C217.681 46.0558 217.886 44.4869 217.886 42.8258V42.1183C217.886 40.4776 217.681 38.9293 217.271 37.4732C216.881 35.9967 216.287 34.6944 215.487 33.5665C214.708 32.4181 213.723 31.5157 212.534 30.8595C211.365 30.2032 209.991 29.8751 208.412 29.8751C206.853 29.8751 205.479 30.2032 204.29 30.8595C203.121 31.5157 202.136 32.4181 201.336 33.5665C200.557 34.6944 199.973 35.9967 199.583 37.4732C199.193 38.9293 198.999 40.4776 198.999 42.1183ZM236.436 32.213V71.8956H230.714V25.8145H235.943L236.436 32.213ZM258.861 42.1798V42.8258C258.861 45.2457 258.574 47.4913 258 49.5626C257.425 51.6134 256.584 53.3976 255.477 54.9151C254.39 56.4327 253.047 57.6119 251.447 58.4527C249.848 59.2935 248.012 59.714 245.941 59.714C243.829 59.714 241.962 59.3653 240.342 58.6681C238.722 57.9708 237.348 56.9557 236.22 55.6227C235.092 54.2896 234.19 52.69 233.513 50.8238C232.857 48.9576 232.406 46.8556 232.16 44.5177V41.0724C232.406 38.6114 232.867 36.4068 233.544 34.4586C234.221 32.5103 235.113 30.8492 236.22 29.4752C237.348 28.0807 238.712 27.0245 240.312 26.3067C241.911 25.5685 243.757 25.1993 245.849 25.1993C247.94 25.1993 249.796 25.6095 251.417 26.4298C253.037 27.2296 254.4 28.378 255.508 29.8751C256.615 31.3722 257.446 33.1666 258 35.2584C258.574 37.3297 258.861 39.6368 258.861 42.1798ZM253.139 42.8258V42.1798C253.139 40.5186 252.965 38.9601 252.616 37.504C252.268 36.0274 251.724 34.7354 250.986 33.628C250.268 32.5001 249.345 31.6183 248.217 30.9825C247.089 30.3263 245.746 29.9981 244.188 29.9981C242.752 29.9981 241.501 30.2442 240.435 30.7364C239.389 31.2286 238.497 31.8951 237.758 32.7359C237.02 33.5562 236.415 34.4996 235.943 35.566C235.492 36.6119 235.154 37.6988 234.928 38.8268V46.794C235.338 48.2296 235.913 49.5831 236.651 50.8546C237.389 52.1056 238.374 53.1207 239.604 53.9C240.834 54.6588 242.383 55.0382 244.249 55.0382C245.787 55.0382 247.11 54.7203 248.217 54.0846C249.345 53.4283 250.268 52.5362 250.986 51.4083C251.724 50.2804 252.268 48.9884 252.616 47.5323C252.965 46.0558 253.139 44.4869 253.139 42.8258ZM279.933 59.714C277.615 59.714 275.513 59.3243 273.626 58.545C271.76 57.7452 270.15 56.6275 268.797 55.192C267.464 53.7564 266.438 52.0543 265.721 50.0855C265.003 48.1168 264.644 45.9635 264.644 43.6256V42.3336C264.644 39.6266 265.044 37.2169 265.844 35.1046C266.644 32.9718 267.73 31.1671 269.104 29.6905C270.479 28.214 272.037 27.0963 273.78 26.3375C275.523 25.5787 277.328 25.1993 279.194 25.1993C281.573 25.1993 283.624 25.6095 285.347 26.4298C287.09 27.2501 288.515 28.3985 289.623 29.8751C290.73 31.3311 291.55 33.0538 292.083 35.0431C292.617 37.0118 292.883 39.1651 292.883 41.503V44.0562H268.028V39.4112H287.192V38.9806C287.11 37.504 286.803 36.0685 286.27 34.6739C285.757 33.2794 284.937 32.131 283.809 31.2286C282.681 30.3263 281.143 29.8751 279.194 29.8751C277.902 29.8751 276.713 30.1519 275.626 30.7057C274.539 31.2389 273.606 32.0387 272.827 33.1051C272.047 34.1715 271.442 35.4737 271.012 37.0118C270.581 38.5499 270.366 40.3238 270.366 42.3336V43.6256C270.366 45.2047 270.581 46.6915 271.012 48.086C271.463 49.4601 272.109 50.67 272.95 51.7159C273.811 52.7618 274.847 53.5821 276.057 54.1768C277.287 54.7716 278.682 55.0689 280.24 55.0689C282.25 55.0689 283.952 54.6588 285.347 53.8385C286.741 53.0182 287.961 51.921 289.007 50.547L292.453 53.2848C291.735 54.3717 290.822 55.4073 289.715 56.3917C288.607 57.3761 287.244 58.1759 285.624 58.7911C284.024 59.4063 282.127 59.714 279.933 59.714ZM305.219 31.044V59.0987H299.528V25.8145H305.065L305.219 31.044ZM315.616 25.63L315.585 30.921C315.114 30.8185 314.663 30.7569 314.232 30.7364C313.822 30.6954 313.35 30.6749 312.817 30.6749C311.504 30.6749 310.346 30.88 309.341 31.2901C308.336 31.7003 307.485 32.2745 306.788 33.0128C306.09 33.7511 305.537 34.6329 305.126 35.6583C304.737 36.6632 304.48 37.7706 304.357 38.9806L302.758 39.9034C302.758 37.8936 302.953 36.0069 303.342 34.2433C303.752 32.4796 304.378 30.921 305.219 29.5675C306.06 28.1935 307.126 27.127 308.418 26.3683C309.73 25.589 311.289 25.1993 313.094 25.1993C313.504 25.1993 313.976 25.2506 314.509 25.3531C315.042 25.4352 315.411 25.5274 315.616 25.63ZM336.35 25.8145V30.1827H318.354V25.8145H336.35ZM324.445 17.7242H330.136V50.8546C330.136 51.9825 330.31 52.8336 330.659 53.4078C331.007 53.982 331.458 54.3614 332.012 54.546C332.566 54.7306 333.161 54.8228 333.796 54.8228C334.268 54.8228 334.76 54.7818 335.273 54.6998C335.806 54.5973 336.206 54.5152 336.473 54.4537L336.503 59.0987C336.052 59.2423 335.458 59.3756 334.719 59.4986C334.001 59.6422 333.13 59.714 332.104 59.714C330.71 59.714 329.428 59.4371 328.259 58.8834C327.09 58.3297 326.157 57.4068 325.46 56.1148C324.783 54.8023 324.445 53.0387 324.445 50.8238V17.7242ZM352.376 55.6534L361.636 25.8145H367.727L354.376 64.2359C354.068 65.0562 353.658 65.9381 353.146 66.8814C352.653 67.8453 352.018 68.7579 351.238 69.6192C350.459 70.4806 349.516 71.1778 348.408 71.711C347.321 72.2647 346.019 72.5416 344.501 72.5416C344.05 72.5416 343.476 72.4801 342.779 72.357C342.082 72.234 341.589 72.1314 341.302 72.0494L341.271 67.4352C341.436 67.4557 341.692 67.4762 342.041 67.4967C342.41 67.5377 342.666 67.5582 342.81 67.5582C344.102 67.5582 345.199 67.3839 346.101 67.0352C347.003 66.7071 347.762 66.1432 348.377 65.3434C349.013 64.5641 349.557 63.4874 350.008 62.1134L352.376 55.6534ZM345.578 25.8145L354.222 51.6544L355.699 57.6529L351.607 59.7447L339.364 25.8145H345.578ZM390.275 14.3097V59.0987H384.43V14.3097H390.275ZM404.671 14.3097V19.17H370.064V14.3097H404.671ZM413.808 31.044V59.0987H408.117V25.8145H413.654L413.808 31.044ZM424.205 25.63L424.174 30.921C423.703 30.8185 423.251 30.7569 422.821 30.7364C422.411 30.6954 421.939 30.6749 421.406 30.6749C420.093 30.6749 418.935 30.88 417.93 31.2901C416.925 31.7003 416.074 32.2745 415.376 33.0128C414.679 33.7511 414.125 34.6329 413.715 35.6583C413.326 36.6632 413.069 37.7706 412.946 38.9806L411.347 39.9034C411.347 37.8936 411.542 36.0069 411.931 34.2433C412.341 32.4796 412.967 30.921 413.808 29.5675C414.648 28.1935 415.715 27.127 417.007 26.3683C418.319 25.589 419.878 25.1993 421.683 25.1993C422.093 25.1993 422.564 25.2506 423.098 25.3531C423.631 25.4352 424 25.5274 424.205 25.63ZM427.343 42.8258V42.1183C427.343 39.7188 427.691 37.4937 428.389 35.443C429.086 33.3717 430.091 31.5772 431.403 30.0597C432.716 28.5216 434.305 27.3321 436.171 26.4913C438.038 25.63 440.129 25.1993 442.447 25.1993C444.785 25.1993 446.887 25.63 448.753 26.4913C450.64 27.3321 452.239 28.5216 453.552 30.0597C454.885 31.5772 455.9 33.3717 456.597 35.443C457.294 37.4937 457.643 39.7188 457.643 42.1183V42.8258C457.643 45.2252 457.294 47.4503 456.597 49.5011C455.9 51.5518 454.885 53.3463 453.552 54.8844C452.239 56.4019 450.65 57.5914 448.784 58.4527C446.938 59.2935 444.846 59.714 442.508 59.714C440.17 59.714 438.068 59.2935 436.202 58.4527C434.336 57.5914 432.736 56.4019 431.403 54.8844C430.091 53.3463 429.086 51.5518 428.389 49.5011C427.691 47.4503 427.343 45.2252 427.343 42.8258ZM433.034 42.1183V42.8258C433.034 44.4869 433.229 46.0558 433.618 47.5323C434.008 48.9884 434.592 50.2804 435.372 51.4083C436.171 52.5362 437.166 53.4283 438.355 54.0846C439.545 54.7203 440.929 55.0382 442.508 55.0382C444.067 55.0382 445.431 54.7203 446.6 54.0846C447.789 53.4283 448.773 52.5362 449.553 51.4083C450.332 50.2804 450.917 48.9884 451.306 47.5323C451.716 46.0558 451.921 44.4869 451.921 42.8258V42.1183C451.921 40.4776 451.716 38.9293 451.306 37.4732C450.917 35.9967 450.322 34.6944 449.522 33.5665C448.743 32.4181 447.758 31.5157 446.569 30.8595C445.4 30.2032 444.026 29.8751 442.447 29.8751C440.888 29.8751 439.514 30.2032 438.325 30.8595C437.156 31.5157 436.171 32.4181 435.372 33.5665C434.592 34.6944 434.008 35.9967 433.618 37.4732C433.229 38.9293 433.034 40.4776 433.034 42.1183ZM463.272 42.8258V42.1183C463.272 39.7188 463.621 37.4937 464.318 35.443C465.016 33.3717 466.021 31.5772 467.333 30.0597C468.646 28.5216 470.235 27.3321 472.101 26.4913C473.967 25.63 476.059 25.1993 478.376 25.1993C480.714 25.1993 482.816 25.63 484.683 26.4913C486.569 27.3321 488.169 28.5216 489.481 30.0597C490.814 31.5772 491.83 33.3717 492.527 35.443C493.224 37.4937 493.573 39.7188 493.573 42.1183V42.8258C493.573 45.2252 493.224 47.4503 492.527 49.5011C491.83 51.5518 490.814 53.3463 489.481 54.8844C488.169 56.4019 486.58 57.5914 484.713 58.4527C482.868 59.2935 480.776 59.714 478.438 59.714C476.1 59.714 473.998 59.2935 472.132 58.4527C470.266 57.5914 468.666 56.4019 467.333 54.8844C466.021 53.3463 465.016 51.5518 464.318 49.5011C463.621 47.4503 463.272 45.2252 463.272 42.8258ZM468.963 42.1183V42.8258C468.963 44.4869 469.158 46.0558 469.548 47.5323C469.938 48.9884 470.522 50.2804 471.301 51.4083C472.101 52.5362 473.096 53.4283 474.285 54.0846C475.475 54.7203 476.859 55.0382 478.438 55.0382C479.997 55.0382 481.36 54.7203 482.529 54.0846C483.719 53.4283 484.703 52.5362 485.482 51.4083C486.262 50.2804 486.846 48.9884 487.236 47.5323C487.646 46.0558 487.851 44.4869 487.851 42.8258V42.1183C487.851 40.4776 487.646 38.9293 487.236 37.4732C486.846 35.9967 486.251 34.6944 485.452 33.5665C484.672 32.4181 483.688 31.5157 482.499 30.8595C481.33 30.2032 479.956 29.8751 478.376 29.8751C476.818 29.8751 475.444 30.2032 474.254 30.8595C473.085 31.5157 472.101 32.4181 471.301 33.5665C470.522 34.6944 469.938 35.9967 469.548 37.4732C469.158 38.9293 468.963 40.4776 468.963 42.1183ZM506.4 32.213V71.8956H500.679V25.8145H505.908L506.4 32.213ZM528.826 42.1798V42.8258C528.826 45.2457 528.539 47.4913 527.964 49.5626C527.39 51.6134 526.549 53.3976 525.442 54.9151C524.355 56.4327 523.012 57.6119 521.412 58.4527C519.812 59.2935 517.977 59.714 515.906 59.714C513.793 59.714 511.927 59.3653 510.307 58.6681C508.687 57.9708 507.313 56.9557 506.185 55.6227C505.057 54.2896 504.155 52.69 503.478 50.8238C502.822 48.9576 502.371 46.8556 502.125 44.5177V41.0724C502.371 38.6114 502.832 36.4068 503.509 34.4586C504.186 32.5103 505.078 30.8492 506.185 29.4752C507.313 28.0807 508.677 27.0245 510.276 26.3067C511.876 25.5685 513.722 25.1993 515.813 25.1993C517.905 25.1993 519.761 25.6095 521.381 26.4298C523.001 27.2296 524.365 28.378 525.473 29.8751C526.58 31.3722 527.411 33.1666 527.964 35.2584C528.539 37.3297 528.826 39.6368 528.826 42.1798ZM523.104 42.8258V42.1798C523.104 40.5186 522.93 38.9601 522.581 37.504C522.232 36.0274 521.689 34.7354 520.951 33.628C520.233 32.5001 519.31 31.6183 518.182 30.9825C517.054 30.3263 515.711 29.9981 514.152 29.9981C512.717 29.9981 511.466 30.2442 510.399 30.7364C509.354 31.2286 508.461 31.8951 507.723 32.7359C506.985 33.5562 506.38 34.4996 505.908 35.566C505.457 36.6119 505.119 37.6988 504.893 38.8268V46.794C505.303 48.2296 505.877 49.5831 506.616 50.8546C507.354 52.1056 508.338 53.1207 509.569 53.9C510.799 54.6588 512.348 55.0382 514.214 55.0382C515.752 55.0382 517.075 54.7203 518.182 54.0846C519.31 53.4283 520.233 52.5362 520.951 51.4083C521.689 50.2804 522.232 48.9884 522.581 47.5323C522.93 46.0558 523.104 44.4869 523.104 42.8258Z" fill="#7F3DFF"/>
    <path d="M146.406 96.6461V98.9459H134.863V96.6461H146.406ZM135.303 87.4762V108.804H132.476V87.4762H135.303ZM148.867 87.4762V108.804H146.055V87.4762H148.867ZM156.426 92.9547V108.804H153.701V92.9547H156.426ZM153.496 88.7506C153.496 88.3111 153.628 87.94 153.892 87.6373C154.165 87.3346 154.565 87.1832 155.093 87.1832C155.61 87.1832 156.006 87.3346 156.279 87.6373C156.562 87.94 156.704 88.3111 156.704 88.7506C156.704 89.1705 156.562 89.5318 156.279 89.8346C156.006 90.1275 155.61 90.274 155.093 90.274C154.565 90.274 154.165 90.1275 153.892 89.8346C153.628 89.5318 153.496 89.1705 153.496 88.7506ZM170.005 104.6C170.005 104.21 169.917 103.848 169.741 103.516C169.575 103.174 169.229 102.867 168.701 102.593C168.184 102.31 167.402 102.066 166.357 101.861C165.479 101.675 164.683 101.456 163.97 101.202C163.267 100.948 162.666 100.64 162.168 100.279C161.68 99.9176 161.304 99.4928 161.04 99.0045C160.776 98.5162 160.645 97.9449 160.645 97.2906C160.645 96.6656 160.781 96.0748 161.055 95.5182C161.338 94.9615 161.733 94.4684 162.241 94.0387C162.759 93.609 163.379 93.2721 164.102 93.0279C164.824 92.7838 165.63 92.6617 166.519 92.6617C167.788 92.6617 168.872 92.8863 169.771 93.3355C170.669 93.7848 171.357 94.3853 171.836 95.1373C172.314 95.8795 172.554 96.7047 172.554 97.6129H169.844C169.844 97.1734 169.712 96.7486 169.448 96.3385C169.194 95.9185 168.818 95.5719 168.32 95.2984C167.832 95.025 167.231 94.8883 166.519 94.8883C165.767 94.8883 165.156 95.0055 164.688 95.2398C164.229 95.4644 163.892 95.7525 163.677 96.1041C163.472 96.4557 163.369 96.8268 163.369 97.2174C163.369 97.5103 163.418 97.774 163.516 98.0084C163.623 98.233 163.809 98.443 164.072 98.6383C164.336 98.8238 164.707 98.9996 165.186 99.1656C165.664 99.3316 166.274 99.4977 167.017 99.6637C168.315 99.9566 169.385 100.308 170.225 100.718C171.064 101.129 171.689 101.631 172.1 102.227C172.51 102.823 172.715 103.546 172.715 104.395C172.715 105.088 172.568 105.723 172.275 106.299C171.992 106.876 171.577 107.374 171.03 107.794C170.493 108.204 169.849 108.526 169.097 108.76C168.354 108.985 167.52 109.097 166.592 109.097C165.195 109.097 164.014 108.848 163.047 108.35C162.08 107.852 161.348 107.208 160.85 106.417C160.352 105.626 160.103 104.791 160.103 103.912H162.827C162.866 104.654 163.081 105.245 163.472 105.684C163.862 106.114 164.341 106.421 164.907 106.607C165.474 106.783 166.035 106.871 166.592 106.871C167.334 106.871 167.954 106.773 168.452 106.578C168.96 106.382 169.346 106.114 169.609 105.772C169.873 105.43 170.005 105.04 170.005 104.6ZM182.91 92.9547V95.0348H174.341V92.9547H182.91ZM177.241 89.1021H179.951V104.879C179.951 105.416 180.034 105.821 180.2 106.094C180.366 106.368 180.581 106.548 180.845 106.636C181.108 106.724 181.392 106.768 181.694 106.768C181.919 106.768 182.153 106.749 182.397 106.71C182.651 106.661 182.842 106.622 182.969 106.592L182.983 108.804C182.769 108.873 182.485 108.936 182.134 108.995C181.792 109.063 181.377 109.097 180.889 109.097C180.225 109.097 179.614 108.965 179.058 108.702C178.501 108.438 178.057 107.999 177.725 107.383C177.402 106.758 177.241 105.919 177.241 104.864V89.1021ZM185.078 101.055V100.718C185.078 99.5758 185.244 98.5162 185.576 97.5396C185.908 96.5533 186.387 95.6988 187.012 94.9762C187.637 94.2437 188.394 93.6773 189.282 93.2769C190.171 92.8668 191.167 92.6617 192.271 92.6617C193.384 92.6617 194.385 92.8668 195.273 93.2769C196.172 93.6773 196.934 94.2437 197.559 94.9762C198.193 95.6988 198.677 96.5533 199.009 97.5396C199.341 98.5162 199.507 99.5758 199.507 100.718V101.055C199.507 102.198 199.341 103.257 199.009 104.234C198.677 105.211 198.193 106.065 197.559 106.797C196.934 107.52 196.177 108.087 195.288 108.497C194.409 108.897 193.413 109.097 192.3 109.097C191.187 109.097 190.186 108.897 189.297 108.497C188.408 108.087 187.646 107.52 187.012 106.797C186.387 106.065 185.908 105.211 185.576 104.234C185.244 103.257 185.078 102.198 185.078 101.055ZM187.788 100.718V101.055C187.788 101.846 187.881 102.593 188.066 103.296C188.252 103.99 188.53 104.605 188.901 105.142C189.282 105.679 189.756 106.104 190.322 106.417C190.889 106.719 191.548 106.871 192.3 106.871C193.042 106.871 193.691 106.719 194.248 106.417C194.814 106.104 195.283 105.679 195.654 105.142C196.025 104.605 196.304 103.99 196.489 103.296C196.685 102.593 196.782 101.846 196.782 101.055V100.718C196.782 99.9371 196.685 99.1998 196.489 98.5064C196.304 97.8033 196.021 97.1832 195.64 96.6461C195.269 96.0992 194.8 95.6695 194.233 95.357C193.677 95.0445 193.022 94.8883 192.271 94.8883C191.528 94.8883 190.874 95.0445 190.308 95.357C189.751 95.6695 189.282 96.0992 188.901 96.6461C188.53 97.1832 188.252 97.8033 188.066 98.5064C187.881 99.1998 187.788 99.9371 187.788 100.718ZM205.615 95.4449V108.804H202.905V92.9547H205.542L205.615 95.4449ZM210.566 92.8668L210.552 95.3863C210.327 95.3375 210.112 95.3082 209.907 95.2984C209.712 95.2789 209.487 95.2691 209.233 95.2691C208.608 95.2691 208.057 95.3668 207.578 95.5621C207.1 95.7574 206.694 96.0309 206.362 96.3824C206.03 96.734 205.767 97.1539 205.571 97.6422C205.386 98.1207 205.264 98.648 205.205 99.2242L204.443 99.6637C204.443 98.7066 204.536 97.8082 204.722 96.9684C204.917 96.1285 205.215 95.3863 205.615 94.7418C206.016 94.0875 206.523 93.5797 207.139 93.2184C207.764 92.8473 208.506 92.6617 209.365 92.6617C209.561 92.6617 209.785 92.6861 210.039 92.735C210.293 92.774 210.469 92.818 210.566 92.8668ZM217.788 107.164L222.197 92.9547H225.098L218.74 111.251C218.594 111.641 218.398 112.061 218.154 112.51C217.92 112.969 217.617 113.404 217.246 113.814C216.875 114.224 216.426 114.556 215.898 114.81C215.381 115.074 214.761 115.206 214.038 115.206C213.823 115.206 213.55 115.176 213.218 115.118C212.886 115.059 212.651 115.01 212.515 114.971L212.5 112.774C212.578 112.784 212.7 112.794 212.866 112.803C213.042 112.823 213.164 112.833 213.232 112.833C213.848 112.833 214.37 112.75 214.8 112.584C215.229 112.427 215.591 112.159 215.884 111.778C216.187 111.407 216.445 110.894 216.66 110.24L217.788 107.164ZM214.551 92.9547L218.667 105.259L219.37 108.116L217.422 109.112L211.592 92.9547H214.551ZM241.621 92.9547V95.0348H233.052V92.9547H241.621ZM235.952 89.1021H238.662V104.879C238.662 105.416 238.745 105.821 238.911 106.094C239.077 106.368 239.292 106.548 239.556 106.636C239.819 106.724 240.103 106.768 240.405 106.768C240.63 106.768 240.864 106.749 241.108 106.71C241.362 106.661 241.553 106.622 241.68 106.592L241.694 108.804C241.479 108.873 241.196 108.936 240.845 108.995C240.503 109.063 240.088 109.097 239.6 109.097C238.936 109.097 238.325 108.965 237.769 108.702C237.212 108.438 236.768 107.999 236.436 107.383C236.113 106.758 235.952 105.919 235.952 104.864V89.1021ZM251.377 109.097C250.273 109.097 249.272 108.912 248.374 108.541C247.485 108.16 246.719 107.628 246.074 106.944C245.439 106.26 244.951 105.45 244.609 104.512C244.268 103.575 244.097 102.549 244.097 101.436V100.821C244.097 99.5318 244.287 98.3844 244.668 97.3785C245.049 96.3629 245.566 95.5035 246.221 94.8004C246.875 94.0973 247.617 93.565 248.447 93.2037C249.277 92.8424 250.137 92.6617 251.025 92.6617C252.158 92.6617 253.135 92.857 253.955 93.2477C254.785 93.6383 255.464 94.1852 255.991 94.8883C256.519 95.5816 256.909 96.4019 257.163 97.3492C257.417 98.2867 257.544 99.3121 257.544 100.425V101.641H245.708V99.4293H254.834V99.2242C254.795 98.5211 254.648 97.8375 254.395 97.1734C254.15 96.5094 253.76 95.9625 253.223 95.5328C252.686 95.1031 251.953 94.8883 251.025 94.8883C250.41 94.8883 249.844 95.0201 249.326 95.2838C248.809 95.5377 248.364 95.9185 247.993 96.4264C247.622 96.9342 247.334 97.5543 247.129 98.2867C246.924 99.0191 246.821 99.8639 246.821 100.821V101.436C246.821 102.188 246.924 102.896 247.129 103.56C247.344 104.214 247.651 104.791 248.052 105.289C248.462 105.787 248.955 106.177 249.531 106.461C250.117 106.744 250.781 106.885 251.523 106.885C252.48 106.885 253.291 106.69 253.955 106.299C254.619 105.909 255.2 105.386 255.698 104.732L257.339 106.036C256.997 106.553 256.562 107.046 256.035 107.515C255.508 107.984 254.858 108.365 254.087 108.658C253.325 108.951 252.422 109.097 251.377 109.097ZM263.652 86.3043V108.804H260.928V86.3043H263.652ZM270.947 86.3043V108.804H268.223V86.3043H270.947ZM284.526 104.6C284.526 104.21 284.438 103.848 284.263 103.516C284.097 103.174 283.75 102.867 283.223 102.593C282.705 102.31 281.924 102.066 280.879 101.861C280 101.675 279.204 101.456 278.491 101.202C277.788 100.948 277.188 100.64 276.689 100.279C276.201 99.9176 275.825 99.4928 275.562 99.0045C275.298 98.5162 275.166 97.9449 275.166 97.2906C275.166 96.6656 275.303 96.0748 275.576 95.5182C275.859 94.9615 276.255 94.4684 276.763 94.0387C277.28 93.609 277.9 93.2721 278.623 93.0279C279.346 92.7838 280.151 92.6617 281.04 92.6617C282.31 92.6617 283.394 92.8863 284.292 93.3355C285.19 93.7848 285.879 94.3853 286.357 95.1373C286.836 95.8795 287.075 96.7047 287.075 97.6129H284.365C284.365 97.1734 284.233 96.7486 283.97 96.3385C283.716 95.9185 283.34 95.5719 282.842 95.2984C282.354 95.025 281.753 94.8883 281.04 94.8883C280.288 94.8883 279.678 95.0055 279.209 95.2398C278.75 95.4644 278.413 95.7525 278.198 96.1041C277.993 96.4557 277.891 96.8268 277.891 97.2174C277.891 97.5103 277.939 97.774 278.037 98.0084C278.145 98.233 278.33 98.443 278.594 98.6383C278.857 98.8238 279.229 98.9996 279.707 99.1656C280.186 99.3316 280.796 99.4977 281.538 99.6637C282.837 99.9566 283.906 100.308 284.746 100.718C285.586 101.129 286.211 101.631 286.621 102.227C287.031 102.823 287.236 103.546 287.236 104.395C287.236 105.088 287.09 105.723 286.797 106.299C286.514 106.876 286.099 107.374 285.552 107.794C285.015 108.204 284.37 108.526 283.618 108.76C282.876 108.985 282.041 109.097 281.113 109.097C279.717 109.097 278.535 108.848 277.568 108.35C276.602 107.852 275.869 107.208 275.371 106.417C274.873 105.626 274.624 104.791 274.624 103.912H277.349C277.388 104.654 277.603 105.245 277.993 105.684C278.384 106.114 278.862 106.421 279.429 106.607C279.995 106.783 280.557 106.871 281.113 106.871C281.855 106.871 282.476 106.773 282.974 106.578C283.481 106.382 283.867 106.114 284.131 105.772C284.395 105.43 284.526 105.04 284.526 104.6ZM302.69 107.164L307.1 92.9547H310L303.643 111.251C303.496 111.641 303.301 112.061 303.057 112.51C302.822 112.969 302.52 113.404 302.148 113.814C301.777 114.224 301.328 114.556 300.801 114.81C300.283 115.074 299.663 115.206 298.94 115.206C298.726 115.206 298.452 115.176 298.12 115.118C297.788 115.059 297.554 115.01 297.417 114.971L297.402 112.774C297.48 112.784 297.603 112.794 297.769 112.803C297.944 112.823 298.066 112.833 298.135 112.833C298.75 112.833 299.272 112.75 299.702 112.584C300.132 112.427 300.493 112.159 300.786 111.778C301.089 111.407 301.348 110.894 301.562 110.24L302.69 107.164ZM299.453 92.9547L303.569 105.259L304.272 108.116L302.324 109.112L296.494 92.9547H299.453ZM311.494 101.055V100.718C311.494 99.5758 311.66 98.5162 311.992 97.5396C312.324 96.5533 312.803 95.6988 313.428 94.9762C314.053 94.2437 314.81 93.6773 315.698 93.2769C316.587 92.8668 317.583 92.6617 318.687 92.6617C319.8 92.6617 320.801 92.8668 321.689 93.2769C322.588 93.6773 323.35 94.2437 323.975 94.9762C324.609 95.6988 325.093 96.5533 325.425 97.5396C325.757 98.5162 325.923 99.5758 325.923 100.718V101.055C325.923 102.198 325.757 103.257 325.425 104.234C325.093 105.211 324.609 106.065 323.975 106.797C323.35 107.52 322.593 108.087 321.704 108.497C320.825 108.897 319.829 109.097 318.716 109.097C317.603 109.097 316.602 108.897 315.713 108.497C314.824 108.087 314.062 107.52 313.428 106.797C312.803 106.065 312.324 105.211 311.992 104.234C311.66 103.257 311.494 102.198 311.494 101.055ZM314.204 100.718V101.055C314.204 101.846 314.297 102.593 314.482 103.296C314.668 103.99 314.946 104.605 315.317 105.142C315.698 105.679 316.172 106.104 316.738 106.417C317.305 106.719 317.964 106.871 318.716 106.871C319.458 106.871 320.107 106.719 320.664 106.417C321.23 106.104 321.699 105.679 322.07 105.142C322.441 104.605 322.72 103.99 322.905 103.296C323.101 102.593 323.198 101.846 323.198 101.055V100.718C323.198 99.9371 323.101 99.1998 322.905 98.5064C322.72 97.8033 322.437 97.1832 322.056 96.6461C321.685 96.0992 321.216 95.6695 320.649 95.357C320.093 95.0445 319.438 94.8883 318.687 94.8883C317.944 94.8883 317.29 95.0445 316.724 95.357C316.167 95.6695 315.698 96.0992 315.317 96.6461C314.946 97.1832 314.668 97.8033 314.482 98.5064C314.297 99.1998 314.204 99.9371 314.204 100.718ZM339.019 105.142V92.9547H341.743V108.804H339.15L339.019 105.142ZM339.531 101.802L340.659 101.773C340.659 102.828 340.547 103.804 340.322 104.703C340.107 105.591 339.756 106.363 339.268 107.017C338.779 107.671 338.14 108.184 337.349 108.555C336.558 108.917 335.596 109.097 334.463 109.097C333.691 109.097 332.983 108.985 332.339 108.76C331.704 108.536 331.157 108.189 330.698 107.72C330.239 107.252 329.883 106.641 329.629 105.889C329.385 105.137 329.263 104.234 329.263 103.179V92.9547H331.973V103.209C331.973 103.921 332.051 104.512 332.207 104.981C332.373 105.44 332.593 105.806 332.866 106.08C333.149 106.343 333.462 106.529 333.804 106.636C334.155 106.744 334.517 106.797 334.888 106.797C336.04 106.797 336.953 106.578 337.627 106.138C338.301 105.689 338.784 105.088 339.077 104.337C339.38 103.575 339.531 102.73 339.531 101.802ZM362.661 106.094V97.9352C362.661 97.3102 362.534 96.7682 362.28 96.3092C362.036 95.8404 361.665 95.4791 361.167 95.2252C360.669 94.9713 360.054 94.8443 359.321 94.8443C358.638 94.8443 358.037 94.9615 357.52 95.1959C357.012 95.4303 356.611 95.7379 356.318 96.1187C356.035 96.4996 355.894 96.9098 355.894 97.3492H353.184C353.184 96.7828 353.33 96.2213 353.623 95.6646C353.916 95.108 354.336 94.6051 354.883 94.1559C355.439 93.6969 356.104 93.3355 356.875 93.0719C357.656 92.7984 358.525 92.6617 359.482 92.6617C360.635 92.6617 361.65 92.857 362.529 93.2477C363.418 93.6383 364.111 94.2291 364.609 95.0201C365.117 95.8014 365.371 96.7828 365.371 97.9644V105.347C365.371 105.875 365.415 106.436 365.503 107.032C365.601 107.628 365.742 108.14 365.928 108.57V108.804H363.101C362.964 108.492 362.856 108.077 362.778 107.559C362.7 107.032 362.661 106.544 362.661 106.094ZM363.13 99.1949L363.159 101.099H360.42C359.648 101.099 358.96 101.163 358.354 101.29C357.749 101.407 357.241 101.587 356.831 101.832C356.421 102.076 356.108 102.383 355.894 102.754C355.679 103.116 355.571 103.541 355.571 104.029C355.571 104.527 355.684 104.981 355.908 105.391C356.133 105.801 356.47 106.129 356.919 106.373C357.378 106.607 357.939 106.724 358.604 106.724C359.434 106.724 360.166 106.548 360.801 106.197C361.436 105.845 361.938 105.416 362.31 104.908C362.69 104.4 362.896 103.907 362.925 103.428L364.082 104.732C364.014 105.142 363.828 105.596 363.525 106.094C363.223 106.592 362.817 107.071 362.31 107.53C361.812 107.979 361.216 108.355 360.522 108.658C359.839 108.951 359.067 109.097 358.208 109.097C357.134 109.097 356.191 108.887 355.381 108.467C354.58 108.047 353.955 107.486 353.506 106.783C353.066 106.07 352.847 105.274 352.847 104.395C352.847 103.546 353.013 102.798 353.345 102.154C353.677 101.5 354.155 100.958 354.78 100.528C355.405 100.088 356.157 99.7564 357.036 99.5318C357.915 99.3072 358.896 99.1949 359.98 99.1949H363.13ZM372.578 86.3043V108.804H369.854V86.3043H372.578ZM379.873 86.3043V108.804H377.148V86.3043H379.873Z" fill="#7F3DFF"/>
    <path d="M30.5634 9.14117H111.236C113.415 9.14117 115.396 9.92285 116.831 11.1828C118.266 12.4427 119.156 14.182 119.156 16.0961V110.236C119.156 112.15 118.266 113.89 116.831 115.15C115.396 116.409 113.415 117.191 111.236 117.191H58.2069C56.959 117.191 55.9477 116.303 55.9477 115.207C55.9477 114.532 56.3323 113.936 56.92 113.578C57.1553 113.406 57.3772 113.235 57.5843 113.071C57.8102 112.891 58.0684 112.675 58.3575 112.421L58.3535 112.417C62.627 108.665 64.7638 103.747 64.7638 98.8275C64.7638 93.9093 62.627 88.9902 58.3535 85.2377C54.0799 81.4851 48.4789 79.6089 42.8769 79.6089C37.2759 79.6089 31.6739 81.4851 27.4003 85.2377C27.1717 85.4384 27.0346 85.56 26.9848 85.6061L26.9593 85.6297C26.8678 85.7147 26.7387 85.8387 26.576 85.9993C25.7423 86.8129 24.3168 86.8778 23.3903 86.1469C22.8955 85.7561 22.644 85.2165 22.644 84.6745H22.64V16.0984C22.64 14.1844 23.5302 12.445 24.965 11.1851C26.3998 9.9252 28.3806 9.14353 30.5605 9.14353L30.5634 9.14117ZM111.236 13.1086H30.5634C29.6302 13.1086 28.7803 13.4452 28.163 13.9884C27.5458 14.5303 27.1612 15.2778 27.1612 16.0961V80.1923C31.8155 77.1577 37.3476 75.6402 42.8784 75.6402C49.6357 75.6402 56.3931 77.9038 61.5486 82.431C66.7045 86.9583 69.2822 92.8915 69.2822 98.825C69.2822 103.921 67.3808 109.017 63.578 113.221H111.236C112.17 113.221 113.019 112.885 113.637 112.343C114.254 111.801 114.639 111.053 114.639 110.235V16.0949C114.639 15.2754 114.255 14.5292 113.637 13.9872C113.019 13.4452 112.168 13.1075 111.236 13.1075L111.236 13.1086Z" fill="#7F3DFF"/>
    <path d="M57.2877 83.7931C56.0398 83.7931 55.0286 82.9052 55.0286 81.8094C55.0286 80.7136 56.0398 79.8256 57.2877 79.8256H97.5102C98.7581 79.8256 99.7694 80.7136 99.7694 81.8094C99.7694 82.9052 98.7581 83.7931 97.5102 83.7931H57.2877Z" fill="#7F3DFF"/>
    <path d="M65.7082 93.8924C64.4602 93.8924 63.449 93.0045 63.449 91.9087C63.449 90.8129 64.4602 89.9249 65.7082 89.9249H97.5099C98.7578 89.9249 99.769 90.8129 99.769 91.9087C99.769 93.0045 98.7578 93.8924 97.5099 93.8924H65.7082Z" fill="#7F3DFF"/>
    <path d="M66.7513 103.989C65.5033 103.989 64.4921 103.101 64.4921 102.005C64.4921 100.909 65.5033 100.021 66.7513 100.021H97.5096C98.7575 100.021 99.7687 100.909 99.7687 102.005C99.7687 103.101 98.7575 103.989 97.5096 103.989H66.7513Z" fill="#7F3DFF"/>
    <path d="M61.5496 82.4328C66.7055 86.9601 69.2832 92.8934 69.2832 98.8269C69.2832 104.76 66.7054 110.694 61.5496 115.221C56.3937 119.748 49.6367 122.012 42.8794 122.012C36.1221 122.012 29.3647 119.748 24.2092 115.221C19.0533 110.694 16.4756 104.76 16.4756 98.8269C16.4756 92.8934 19.0534 86.9598 24.2092 82.4328C29.3651 77.9055 36.1221 75.642 42.8794 75.642C49.6367 75.642 56.3941 77.9056 61.5496 82.4328ZM64.7648 98.8269C64.7648 93.9087 62.6281 88.9897 58.3545 85.2371C54.081 81.4846 48.48 79.6083 42.8779 79.6083C37.2769 79.6083 31.6749 81.4846 27.4014 85.2371C23.1278 88.9897 20.991 93.9078 20.991 98.8269C20.991 103.745 23.1278 108.664 27.4014 112.417C31.6749 116.169 37.2759 118.045 42.8779 118.045C48.4789 118.045 54.081 116.169 58.3545 112.417C62.6281 108.664 64.7648 103.746 64.7648 98.8269Z" fill="#7F3DFF"/>
    <path d="M31.7442 118.247L12.8871 134.806C11.9041 135.669 10.6118 136.1 9.32096 136.1C8.03015 136.1 6.73772 135.668 5.75484 134.806L1.90472 131.425C0.921711 130.562 0.430908 129.427 0.430908 128.293C0.430908 127.16 0.921745 126.025 1.90472 125.162L20.7619 108.604C21.644 107.829 23.0748 107.829 23.9569 108.604C24.1129 108.741 24.242 108.894 24.3429 109.056C24.7638 109.644 25.2237 110.213 25.7199 110.762C26.2228 111.319 26.7836 111.87 27.4035 112.414C28.0234 112.959 28.6514 113.451 29.2848 113.893C29.9437 114.352 30.6295 114.776 31.3382 115.162C32.3951 115.739 32.7192 116.962 32.0616 117.89C31.9689 118.021 31.8613 118.139 31.7416 118.244L31.7443 118.246L31.7442 118.247ZM9.6931 132L26.6489 117.111L26.4781 116.993C25.6753 116.434 24.9169 115.842 24.2082 115.22C23.5009 114.599 22.8272 113.932 22.1884 113.227L22.0539 113.077L5.09674 127.967C4.99723 128.054 4.94613 128.173 4.94613 128.292C4.94613 128.412 4.99588 128.531 5.09674 128.618L8.94686 131.999C9.04636 132.086 9.18219 132.131 9.318 132.131C9.45381 132.131 9.58963 132.088 9.68913 131.999L9.6931 132Z" fill="#7F3DFF"/>
    <g clip-path="url(#clip0_304_134)">
        <path d="M76.073 25.0987C76.073 22.7825 73.752 20.8987 70.898 20.8987C68.0441 20.8987 65.723 22.7825 65.723 25.0987C65.723 27.415 68.0441 29.2987 70.898 29.2987C73.752 29.2987 76.073 27.415 76.073 25.0987ZM67.448 25.0987C67.448 23.5546 68.9955 22.2987 70.898 22.2987C72.8006 22.2987 74.348 23.5546 74.348 25.0987C74.348 26.6428 72.8006 27.8987 70.898 27.8987C68.9955 27.8987 67.448 26.6428 67.448 25.0987Z" fill="#7F3DFF"/>
        <path d="M97.6355 36.2987H77.2174C78.9402 33.699 80.3856 30.6881 80.3856 27.8987C80.3856 19.0531 73.7513 18.0987 70.8981 18.0987C68.045 18.0987 61.4106 19.0534 61.4106 27.8987C61.4106 30.6881 62.8561 33.699 64.5788 36.2987H44.1607C43.6837 36.2987 43.2982 36.6125 43.2982 36.9987V62.1987C43.2982 62.585 43.6837 62.8987 44.1607 62.8987H97.6357C98.1128 62.8987 98.4982 62.585 98.4982 62.1987V36.9987C98.4982 36.6125 98.1128 36.2987 97.6357 36.2987H97.6355ZM70.898 19.4987C75.904 19.4987 78.6605 22.4822 78.6605 27.8987C78.6605 33.0922 72.8768 39.4643 70.898 41.4915C68.9193 39.4643 63.1355 33.0923 63.1355 27.8987C63.1355 22.4822 65.8921 19.4987 70.898 19.4987V19.4987ZM74.348 41.1987H76.073V43.9987H74.348V41.1987ZM96.773 61.4987H45.023V37.6987H65.5584C66.1164 38.4569 66.6797 39.1637 67.2145 39.7987H64.8607C64.3837 39.7987 63.9982 40.1125 63.9982 40.4987V44.6987C63.9982 45.085 64.3837 45.3987 64.8607 45.3987H68.3107C68.7878 45.3987 69.1732 45.085 69.1732 44.6987V41.9812C69.7674 42.6015 70.1721 42.9865 70.2444 43.055C70.4092 43.21 70.6472 43.2987 70.8982 43.2987C71.1493 43.2987 71.3872 43.21 71.552 43.055C71.6244 42.9862 72.0291 42.6012 72.6232 41.9812V44.6987C72.6232 45.085 73.0086 45.3987 73.4857 45.3987H76.9357C77.4128 45.3987 77.7982 45.085 77.7982 44.6987V40.4987C77.7982 40.1125 77.4128 39.7987 76.9357 39.7987H74.5827C75.1175 39.1637 75.6797 38.4569 76.2388 37.6987H96.7732L96.773 61.4987ZM67.448 41.1987V43.9987H65.723V41.1987H67.448Z" fill="#7F3DFF"/>
        <path d="M47.6105 53.7987H49.3355V59.3987H47.6105V53.7987Z" fill="#7F3DFF"/>
        <path d="M56.2355 53.7987H52.7855C52.3085 53.7987 51.923 54.1125 51.923 54.4987V58.6987C51.923 59.085 52.3085 59.3987 52.7855 59.3987H56.2355C56.7126 59.3987 57.098 59.085 57.098 58.6987V54.4987C57.098 54.1125 56.7126 53.7987 56.2355 53.7987ZM55.373 57.9987H53.648V55.1987H55.373V57.9987Z" fill="#7F3DFF"/>
        <path d="M76.9355 53.7987H73.4855C73.0085 53.7987 72.623 54.1125 72.623 54.4987V58.6987C72.623 59.085 73.0085 59.3987 73.4855 59.3987H76.9355C77.4126 59.3987 77.798 59.085 77.798 58.6987V54.4987C77.798 54.1125 77.4126 53.7987 76.9355 53.7987ZM76.073 57.9987H74.348V55.1987H76.073V57.9987Z" fill="#7F3DFF"/>
        <path d="M89.0105 53.7987H85.5605C85.0835 53.7987 84.698 54.1125 84.698 54.4987V58.6987C84.698 59.085 85.0835 59.3987 85.5605 59.3987H89.0105C89.4876 59.3987 89.873 59.085 89.873 58.6987V54.4987C89.873 54.1125 89.4876 53.7987 89.0105 53.7987ZM88.148 57.9987H86.423V55.1987H88.148V57.9987Z" fill="#7F3DFF"/>
        <path d="M59.6855 53.7987H61.4105V59.3987H59.6855V53.7987Z" fill="#7F3DFF"/>
        <path d="M63.998 53.7987H65.723V59.3987H63.998V53.7987Z" fill="#7F3DFF"/>
        <path d="M68.3105 53.7987H70.0355V59.3987H68.3105V53.7987Z" fill="#7F3DFF"/>
        <path d="M80.3855 53.7987H82.1105V59.3987H80.3855V53.7987Z" fill="#7F3DFF"/>
        <path d="M92.4605 53.7987H94.1855V59.3987H92.4605V53.7987Z" fill="#7F3DFF"/>
        <path d="M48.473 52.3987H51.923C52.4001 52.3987 52.7855 52.085 52.7855 51.6987V47.4987C52.7855 47.1125 52.4001 46.7987 51.923 46.7987H48.473C47.996 46.7987 47.6105 47.1125 47.6105 47.4987V51.6987C47.6105 52.085 47.996 52.3987 48.473 52.3987ZM49.3355 48.1987H51.0605V50.9987H49.3355V48.1987Z" fill="#7F3DFF"/>
        <path d="M69.173 52.3987H72.623C73.1001 52.3987 73.4855 52.085 73.4855 51.6987V47.4987C73.4855 47.1125 73.1001 46.7987 72.623 46.7987H69.173C68.696 46.7987 68.3105 47.1125 68.3105 47.4987V51.6987C68.3105 52.085 68.696 52.3987 69.173 52.3987ZM70.0355 48.1987H71.7605V50.9987H70.0355V48.1987Z" fill="#7F3DFF"/>
        <path d="M81.248 52.3987H84.698C85.1751 52.3987 85.5605 52.085 85.5605 51.6987V47.4987C85.5605 47.1125 85.1751 46.7987 84.698 46.7987H81.248C80.771 46.7987 80.3855 47.1125 80.3855 47.4987V51.6987C80.3855 52.085 80.771 52.3987 81.248 52.3987ZM82.1105 48.1987H83.8355V50.9987H82.1105V48.1987Z" fill="#7F3DFF"/>
        <path d="M55.373 46.7987H57.098V52.3987H55.373V46.7987Z" fill="#7F3DFF"/>
        <path d="M59.6855 46.7987H61.4105V52.3987H59.6855V46.7987Z" fill="#7F3DFF"/>
        <path d="M63.998 46.7987H65.723V52.3987H63.998V46.7987Z" fill="#7F3DFF"/>
        <path d="M76.073 46.7987H77.798V52.3987H76.073V46.7987Z" fill="#7F3DFF"/>
        <path d="M88.148 46.7987H89.873V52.3987H88.148V46.7987Z" fill="#7F3DFF"/>
        <path d="M92.4605 46.7987H94.1855V52.3987H92.4605V46.7987Z" fill="#7F3DFF"/>
        <path d="M92.4605 39.7987H94.1855V45.3987H92.4605V39.7987Z" fill="#7F3DFF"/>
        <path d="M85.5605 45.3987H89.0105C89.4876 45.3987 89.873 45.085 89.873 44.6987V40.4987C89.873 40.1125 89.4876 39.7987 89.0105 39.7987H85.5605C85.0835 39.7987 84.698 40.1125 84.698 40.4987V44.6987C84.698 45.085 85.0835 45.3987 85.5605 45.3987ZM86.423 41.1987H88.148V43.9987H86.423V41.1987Z" fill="#7F3DFF"/>
        <path d="M56.2355 39.7987H52.7855C52.3085 39.7987 51.923 40.1125 51.923 40.4987V44.6987C51.923 45.085 52.3085 45.3987 52.7855 45.3987H56.2355C56.7126 45.3987 57.098 45.085 57.098 44.6987V40.4987C57.098 40.1125 56.7126 39.7987 56.2355 39.7987ZM55.373 43.9987H53.648V41.1987H55.373V43.9987Z" fill="#7F3DFF"/>
        <path d="M80.3855 39.7987H82.1105V45.3987H80.3855V39.7987Z" fill="#7F3DFF"/>
        <path d="M59.6855 39.7987H61.4105V45.3987H59.6855V39.7987Z" fill="#7F3DFF"/>
        <path d="M47.6105 39.7987H49.3355V45.3987H47.6105V39.7987Z" fill="#7F3DFF"/>
    </g>
    <defs>
        <clipPath id="clip0_304_134">
            <rect width="69" height="56" fill="white" transform="translate(36.398 18.0987)"/>
        </clipPath>
    </defs>
</svg>