<svg width="120" height="128" viewBox="0 0 120 128" fill="none" xmlns="http://www.w3.org/2000/svg">
<path d="M30.5634 0.141174H111.236C113.415 0.141174 115.396 0.922849 116.831 2.18277C118.266 3.44268 119.156 5.18199 119.156 7.09608V101.236C119.156 103.15 118.266 104.89 116.831 106.15C115.396 107.409 113.415 108.191 111.236 108.191H58.2069C56.959 108.191 55.9477 107.303 55.9477 106.207C55.9477 105.532 56.3323 104.936 56.92 104.578C57.1553 104.406 57.3772 104.235 57.5843 104.071C57.8102 103.891 58.0684 103.675 58.3575 103.421L58.3535 103.417C62.627 99.6647 64.7638 94.7465 64.7638 89.8275C64.7638 84.9093 62.627 79.9902 58.3535 76.2377C54.0799 72.4851 48.4789 70.6089 42.8769 70.6089C37.2759 70.6089 31.6739 72.4851 27.4003 76.2377C27.1717 76.4384 27.0346 76.56 26.9848 76.6061L26.9593 76.6297C26.8678 76.7147 26.7387 76.8387 26.576 76.9993C25.7423 77.8129 24.3168 77.8778 23.3903 77.1469C22.8955 76.7561 22.644 76.2165 22.644 75.6745H22.64V7.09844C22.64 5.18438 23.5302 3.44504 24.965 2.18512C26.3998 0.925203 28.3806 0.143529 30.5605 0.143529L30.5634 0.141174ZM111.236 4.10865H30.5634C29.6302 4.10865 28.7803 4.44518 28.163 4.98835C27.5458 5.53035 27.1612 6.27777 27.1612 7.09608V71.1923C31.8155 68.1577 37.3476 66.6402 42.8784 66.6402C49.6357 66.6402 56.3931 68.9038 61.5486 73.431C66.7045 77.9583 69.2822 83.8915 69.2822 89.825C69.2822 94.9212 67.3808 100.017 63.578 104.221H111.236C112.17 104.221 113.019 103.885 113.637 103.343C114.254 102.801 114.639 102.053 114.639 101.235V7.0949C114.639 6.27544 114.255 5.52917 113.637 4.98717C113.019 4.44518 112.168 4.10747 111.236 4.10747L111.236 4.10865Z" fill="#7F3DFF"/>
<path d="M57.2877 74.7931C56.0398 74.7931 55.0286 73.9052 55.0286 72.8094C55.0286 71.7136 56.0398 70.8256 57.2877 70.8256H97.5102C98.7581 70.8256 99.7694 71.7136 99.7694 72.8094C99.7694 73.9052 98.7581 74.7931 97.5102 74.7931H57.2877Z" fill="#7F3DFF"/>
<path d="M65.7082 84.8924C64.4602 84.8924 63.449 84.0045 63.449 82.9087C63.449 81.8129 64.4602 80.9249 65.7082 80.9249H97.5099C98.7578 80.9249 99.769 81.8129 99.769 82.9087C99.769 84.0045 98.7578 84.8924 97.5099 84.8924H65.7082Z" fill="#7F3DFF"/>
<path d="M66.7513 94.9887C65.5033 94.9887 64.4921 94.1007 64.4921 93.0049C64.4921 91.9092 65.5033 91.0212 66.7513 91.0212H97.5096C98.7575 91.0212 99.7687 91.9092 99.7687 93.0049C99.7687 94.1007 98.7575 94.9887 97.5096 94.9887H66.7513Z" fill="#7F3DFF"/>
<path d="M61.5496 73.4328C66.7055 77.9601 69.2832 83.8934 69.2832 89.8269C69.2832 95.7604 66.7054 101.694 61.5496 106.221C56.3937 110.748 49.6367 113.012 42.8794 113.012C36.1221 113.012 29.3647 110.748 24.2092 106.221C19.0533 101.694 16.4756 95.7604 16.4756 89.8269C16.4756 83.8934 19.0534 77.9598 24.2092 73.4328C29.3651 68.9055 36.1221 66.642 42.8794 66.642C49.6367 66.642 56.3941 68.9056 61.5496 73.4328ZM64.7648 89.8269C64.7648 84.9087 62.6281 79.9897 58.3545 76.2371C54.081 72.4846 48.48 70.6083 42.8779 70.6083C37.2769 70.6083 31.6749 72.4846 27.4014 76.2371C23.1278 79.9897 20.991 84.9078 20.991 89.8269C20.991 94.745 23.1278 99.6641 27.4014 103.417C31.6749 107.169 37.2759 109.045 42.8779 109.045C48.4789 109.045 54.081 107.169 58.3545 103.417C62.6281 99.6641 64.7648 94.746 64.7648 89.8269Z" fill="#7F3DFF"/>
<path d="M31.7442 109.247L12.8871 125.806C11.9041 126.669 10.6118 127.1 9.32096 127.1C8.03015 127.1 6.73772 126.668 5.75484 125.806L1.90472 122.425C0.921711 121.562 0.430908 120.427 0.430908 119.293C0.430908 118.16 0.921745 117.025 1.90472 116.162L20.7619 99.6039C21.644 98.8293 23.0748 98.8293 23.9569 99.6039C24.1129 99.7409 24.242 99.8944 24.3429 100.056C24.7638 100.644 25.2237 101.213 25.7199 101.762C26.2228 102.319 26.7836 102.87 27.4035 103.414C28.0234 103.959 28.6514 104.451 29.2848 104.893C29.9437 105.352 30.6295 105.776 31.3382 106.162C32.3951 106.739 32.7192 107.962 32.0616 108.89C31.9689 109.021 31.8613 109.139 31.7416 109.244L31.7443 109.246L31.7442 109.247ZM9.6931 123L26.6489 108.111L26.4781 107.993C25.6753 107.434 24.9169 106.842 24.2082 106.22C23.5009 105.599 22.8272 104.932 22.1884 104.227L22.0539 104.077L5.09674 118.967C4.99723 119.054 4.94613 119.173 4.94613 119.292C4.94613 119.412 4.99588 119.531 5.09674 119.618L8.94686 122.999C9.04636 123.086 9.18219 123.131 9.318 123.131C9.45381 123.131 9.58963 123.088 9.68913 122.999L9.6931 123Z" fill="#7F3DFF"/>
<g clip-path="url(#clip0_0_1)">
<path d="M75.073 16.0987C75.073 13.7825 72.752 11.8987 69.898 11.8987C67.0441 11.8987 64.723 13.7825 64.723 16.0987C64.723 18.415 67.0441 20.2987 69.898 20.2987C72.752 20.2987 75.073 18.415 75.073 16.0987ZM66.448 16.0987C66.448 14.5546 67.9955 13.2987 69.898 13.2987C71.8006 13.2987 73.348 14.5546 73.348 16.0987C73.348 17.6428 71.8006 18.8987 69.898 18.8987C67.9955 18.8987 66.448 17.6428 66.448 16.0987Z" fill="#7F3DFF"/>
<path d="M96.6355 27.2987H76.2174C77.9402 24.699 79.3856 21.6881 79.3856 18.8987C79.3856 10.0531 72.7513 9.09872 69.8981 9.09872C67.045 9.09872 60.4106 10.0534 60.4106 18.8987C60.4106 21.6881 61.8561 24.699 63.5788 27.2987H43.1607C42.6837 27.2987 42.2982 27.6125 42.2982 27.9987V53.1987C42.2982 53.585 42.6837 53.8987 43.1607 53.8987H96.6357C97.1128 53.8987 97.4982 53.585 97.4982 53.1987V27.9987C97.4982 27.6125 97.1128 27.2987 96.6357 27.2987H96.6355ZM69.898 10.4987C74.904 10.4987 77.6605 13.4822 77.6605 18.8987C77.6605 24.0922 71.8768 30.4643 69.898 32.4915C67.9193 30.4643 62.1355 24.0923 62.1355 18.8987C62.1355 13.4822 64.8921 10.4987 69.898 10.4987V10.4987ZM73.348 32.1987H75.073V34.9987H73.348V32.1987ZM95.773 52.4987H44.023V28.6987H64.5584C65.1164 29.4569 65.6797 30.1637 66.2145 30.7987H63.8607C63.3837 30.7987 62.9982 31.1125 62.9982 31.4987V35.6987C62.9982 36.085 63.3837 36.3987 63.8607 36.3987H67.3107C67.7878 36.3987 68.1732 36.085 68.1732 35.6987V32.9812C68.7674 33.6015 69.1721 33.9865 69.2444 34.055C69.4092 34.21 69.6472 34.2987 69.8982 34.2987C70.1493 34.2987 70.3872 34.21 70.552 34.055C70.6244 33.9862 71.0291 33.6012 71.6232 32.9812V35.6987C71.6232 36.085 72.0086 36.3987 72.4857 36.3987H75.9357C76.4128 36.3987 76.7982 36.085 76.7982 35.6987V31.4987C76.7982 31.1125 76.4128 30.7987 75.9357 30.7987H73.5827C74.1175 30.1637 74.6797 29.4569 75.2388 28.6987H95.7732L95.773 52.4987ZM66.448 32.1987V34.9987H64.723V32.1987H66.448Z" fill="#7F3DFF"/>
<path d="M46.6105 44.7987H48.3355V50.3987H46.6105V44.7987Z" fill="#7F3DFF"/>
<path d="M55.2355 44.7987H51.7855C51.3085 44.7987 50.923 45.1125 50.923 45.4987V49.6987C50.923 50.085 51.3085 50.3987 51.7855 50.3987H55.2355C55.7126 50.3987 56.098 50.085 56.098 49.6987V45.4987C56.098 45.1125 55.7126 44.7987 55.2355 44.7987ZM54.373 48.9987H52.648V46.1987H54.373V48.9987Z" fill="#7F3DFF"/>
<path d="M75.9355 44.7987H72.4855C72.0085 44.7987 71.623 45.1125 71.623 45.4987V49.6987C71.623 50.085 72.0085 50.3987 72.4855 50.3987H75.9355C76.4126 50.3987 76.798 50.085 76.798 49.6987V45.4987C76.798 45.1125 76.4126 44.7987 75.9355 44.7987ZM75.073 48.9987H73.348V46.1987H75.073V48.9987Z" fill="#7F3DFF"/>
<path d="M88.0105 44.7987H84.5605C84.0835 44.7987 83.698 45.1125 83.698 45.4987V49.6987C83.698 50.085 84.0835 50.3987 84.5605 50.3987H88.0105C88.4876 50.3987 88.873 50.085 88.873 49.6987V45.4987C88.873 45.1125 88.4876 44.7987 88.0105 44.7987ZM87.148 48.9987H85.423V46.1987H87.148V48.9987Z" fill="#7F3DFF"/>
<path d="M58.6855 44.7987H60.4105V50.3987H58.6855V44.7987Z" fill="#7F3DFF"/>
<path d="M62.998 44.7987H64.723V50.3987H62.998V44.7987Z" fill="#7F3DFF"/>
<path d="M67.3105 44.7987H69.0355V50.3987H67.3105V44.7987Z" fill="#7F3DFF"/>
<path d="M79.3855 44.7987H81.1105V50.3987H79.3855V44.7987Z" fill="#7F3DFF"/>
<path d="M91.4605 44.7987H93.1855V50.3987H91.4605V44.7987Z" fill="#7F3DFF"/>
<path d="M47.473 43.3987H50.923C51.4001 43.3987 51.7855 43.085 51.7855 42.6987V38.4987C51.7855 38.1125 51.4001 37.7987 50.923 37.7987H47.473C46.996 37.7987 46.6105 38.1125 46.6105 38.4987V42.6987C46.6105 43.085 46.996 43.3987 47.473 43.3987ZM48.3355 39.1987H50.0605V41.9987H48.3355V39.1987Z" fill="#7F3DFF"/>
<path d="M68.173 43.3987H71.623C72.1001 43.3987 72.4855 43.085 72.4855 42.6987V38.4987C72.4855 38.1125 72.1001 37.7987 71.623 37.7987H68.173C67.696 37.7987 67.3105 38.1125 67.3105 38.4987V42.6987C67.3105 43.085 67.696 43.3987 68.173 43.3987ZM69.0355 39.1987H70.7605V41.9987H69.0355V39.1987Z" fill="#7F3DFF"/>
<path d="M80.248 43.3987H83.698C84.1751 43.3987 84.5605 43.085 84.5605 42.6987V38.4987C84.5605 38.1125 84.1751 37.7987 83.698 37.7987H80.248C79.771 37.7987 79.3855 38.1125 79.3855 38.4987V42.6987C79.3855 43.085 79.771 43.3987 80.248 43.3987ZM81.1105 39.1987H82.8355V41.9987H81.1105V39.1987Z" fill="#7F3DFF"/>
<path d="M54.373 37.7987H56.098V43.3987H54.373V37.7987Z" fill="#7F3DFF"/>
<path d="M58.6855 37.7987H60.4105V43.3987H58.6855V37.7987Z" fill="#7F3DFF"/>
<path d="M62.998 37.7987H64.723V43.3987H62.998V37.7987Z" fill="#7F3DFF"/>
<path d="M75.073 37.7987H76.798V43.3987H75.073V37.7987Z" fill="#7F3DFF"/>
<path d="M87.148 37.7987H88.873V43.3987H87.148V37.7987Z" fill="#7F3DFF"/>
<path d="M91.4605 37.7987H93.1855V43.3987H91.4605V37.7987Z" fill="#7F3DFF"/>
<path d="M91.4605 30.7987H93.1855V36.3987H91.4605V30.7987Z" fill="#7F3DFF"/>
<path d="M84.5605 36.3987H88.0105C88.4876 36.3987 88.873 36.085 88.873 35.6987V31.4987C88.873 31.1125 88.4876 30.7987 88.0105 30.7987H84.5605C84.0835 30.7987 83.698 31.1125 83.698 31.4987V35.6987C83.698 36.085 84.0835 36.3987 84.5605 36.3987ZM85.423 32.1987H87.148V34.9987H85.423V32.1987Z" fill="#7F3DFF"/>
<path d="M55.2355 30.7987H51.7855C51.3085 30.7987 50.923 31.1125 50.923 31.4987V35.6987C50.923 36.085 51.3085 36.3987 51.7855 36.3987H55.2355C55.7126 36.3987 56.098 36.085 56.098 35.6987V31.4987C56.098 31.1125 55.7126 30.7987 55.2355 30.7987ZM54.373 34.9987H52.648V32.1987H54.373V34.9987Z" fill="#7F3DFF"/>
<path d="M79.3855 30.7987H81.1105V36.3987H79.3855V30.7987Z" fill="#7F3DFF"/>
<path d="M58.6855 30.7987H60.4105V36.3987H58.6855V30.7987Z" fill="#7F3DFF"/>
<path d="M46.6105 30.7987H48.3355V36.3987H46.6105V30.7987Z" fill="#7F3DFF"/>
</g>
<defs>
<clipPath id="clip0_0_1">
<rect width="69" height="56" fill="white" transform="translate(35.398 9.09872)"/>
</clipPath>
</defs>
</svg>
